<svg width="48" height="48" viewBox="0 0 48 48" fill="none" xmlns="http://www.w3.org/2000/svg">
<path d="M28.1195 6.37369C25.7352 5.67613 22.8196 5.66285 19.9091 6.33644C16.9985 7.01002 14.3852 8.30285 12.5498 9.97697C10.4273 11.9148 9.53272 14.1683 10.0309 16.3208L14.8221 37.0236C15.3202 39.1761 17.1139 40.8074 19.8719 41.6158C22.2562 42.3133 25.1717 42.3266 28.0823 41.653C30.9929 40.9794 33.6062 39.6866 35.4416 38.0125C37.5602 36.0788 38.4587 33.8212 37.9605 31.6687L33.1693 10.9659C32.6712 8.81338 30.8775 7.18205 28.1195 6.37369ZM15.0785 12.7469C16.4251 11.5179 18.494 10.513 20.7546 9.98987C23.0151 9.46672 25.3151 9.46047 27.0648 9.97293C28.4419 10.3792 29.3397 11.0502 29.5159 11.8114C29.692 12.5725 29.1848 13.5688 28.1217 14.5397C26.7751 15.7687 24.7062 16.7736 22.4456 17.2968C20.185 17.8199 17.885 17.8262 16.1354 17.3137C14.7537 16.9085 13.8604 16.2364 13.6843 15.4752C13.5082 14.7141 14.0153 13.7179 15.0785 12.7469ZM32.9129 35.2425C31.5663 36.4716 29.4974 37.4764 27.2368 37.9996C24.9762 38.5227 22.6762 38.529 20.9266 38.0165C19.545 37.6113 18.6517 36.9392 18.4755 36.1781L14.9314 20.8641L15.0807 20.9129C17.465 21.6105 20.3805 21.6238 23.2911 20.9502C26.2017 20.2766 28.815 18.9838 30.6504 17.3097L30.763 17.2002L34.3071 32.5142C34.4832 33.2753 33.976 34.2716 32.9129 35.2425Z" fill="white"/>
</svg>
