<svg width="16" height="16" viewBox="0 0 16 16" fill="none" xmlns="http://www.w3.org/2000/svg">
<path d="M15.4614 4.309C15.4236 4.21763 15.3595 4.13953 15.2773 4.08457C15.1951 4.02962 15.0984 4.00027 14.9995 4.00025H13.0976C12.8317 3.54786 12.4533 3.17198 11.9991 2.90913C11.5449 2.64629 11.0305 2.50543 10.5058 2.50025C10.1148 2.49512 9.72683 2.56824 9.36457 2.71528C9.00232 2.86233 8.67313 3.08035 8.39639 3.3565C8.11156 3.63602 7.88548 3.96966 7.73146 4.33781C7.57744 4.70596 7.49858 5.10118 7.49951 5.50025V5.88088C4.98326 5.21713 2.92514 3.17025 2.90326 3.14838C2.83618 3.0807 2.75116 3.03361 2.65821 3.01263C2.56526 2.99166 2.46825 2.99768 2.37861 3.02999C2.28897 3.0623 2.21043 3.11955 2.15223 3.19501C2.09404 3.27046 2.05862 3.36097 2.05014 3.45588C1.78076 6.44275 2.64826 8.4415 3.42514 9.59213C3.80394 10.1609 4.26475 10.6706 4.79264 11.1046C3.84076 12.2003 2.34201 12.7759 2.32576 12.7821C2.25521 12.8086 2.19154 12.8506 2.13951 12.9051C2.08748 12.9596 2.04844 13.0251 2.0253 13.0968C2.00216 13.1685 1.99552 13.2445 2.00589 13.3191C2.01625 13.3938 2.04334 13.4651 2.08514 13.5278C2.13201 13.5978 2.31951 13.8434 2.77764 14.0728C3.34389 14.3565 4.09201 14.5003 4.99951 14.5003C9.41639 14.5003 13.107 11.099 13.4839 6.72275L15.3533 4.854C15.4232 4.78404 15.4707 4.69491 15.49 4.5979C15.5092 4.50089 15.4993 4.40035 15.4614 4.309ZM12.6489 6.14713C12.5632 6.23306 12.5116 6.34724 12.5039 6.46838C12.2495 10.4115 8.95451 13.5003 4.99951 13.5003C4.33951 13.5003 3.87451 13.4128 3.54826 13.3078C4.26764 12.9171 5.27076 12.2453 5.91576 11.2778C5.95362 11.2209 5.97941 11.1568 5.99155 11.0896C6.00369 11.0223 6.00191 10.9533 5.98633 10.8868C5.97075 10.8202 5.9417 10.7576 5.90097 10.7027C5.86024 10.6479 5.80869 10.6019 5.74951 10.5678C5.72014 10.5509 3.00514 8.9215 2.99951 4.56775C3.99951 5.38025 5.82764 6.64088 7.91639 6.99213C7.98797 7.0042 8.06133 7.00053 8.13136 6.98139C8.20138 6.96225 8.2664 6.92808 8.3219 6.88128C8.37739 6.83447 8.42202 6.77614 8.45269 6.71034C8.48337 6.64454 8.49934 6.57285 8.49951 6.50025V5.50025C8.49895 5.23353 8.55174 4.9694 8.65478 4.72338C8.75783 4.47737 8.90904 4.25446 9.09951 4.06775C9.28211 3.88481 9.49953 3.74034 9.73892 3.64286C9.97831 3.54539 10.2348 3.4969 10.4933 3.50025C11.2845 3.51025 12.0239 3.99275 12.3333 4.70088C12.3723 4.78991 12.4364 4.86564 12.5177 4.91881C12.5991 4.97198 12.6942 5.00028 12.7914 5.00025H13.7914L12.6489 6.14713Z" fill="white"/>
</svg>
