<svg width="48" height="48" viewBox="0 0 48 48" fill="none" xmlns="http://www.w3.org/2000/svg">
<path d="M20.0502 6.94589C13.9048 8.36811 9.77083 12.425 10.6399 16.1804L15.4312 36.8832C16.3003 40.6386 21.7962 42.4669 27.9416 41.0447C34.087 39.6224 38.2209 35.5656 37.3518 31.8102L32.5606 11.1073C31.6915 7.35191 26.1955 5.52368 20.0502 6.94589ZM27.3779 38.609C22.837 39.6599 18.3924 38.5908 17.8668 36.3195L13.6896 18.27C15.7419 19.5705 19.1999 19.9731 22.8685 19.124C26.5372 18.275 29.4667 16.3942 30.739 14.3243L34.9162 32.3738C35.4418 34.6451 31.9188 37.5581 27.3779 38.609Z" fill="black"/>
</svg>
