<svg width="56" height="56" viewBox="0 0 56 56" fill="none" xmlns="http://www.w3.org/2000/svg">
<path d="M15.6981 30.625H6.93494C6.23875 30.625 5.57107 30.3485 5.07879 29.8562C4.5865 29.3639 4.30994 28.6962 4.30994 28C4.30994 27.3038 4.5865 26.6361 5.07879 26.1439C5.57107 25.6516 6.23875 25.375 6.93494 25.375H14.2915L17.0149 21.2931C17.2544 20.9322 17.5795 20.636 17.9611 20.4312C18.3428 20.2264 18.7693 20.1192 19.2024 20.1192C19.6356 20.1192 20.0621 20.2264 20.4438 20.4312C20.8254 20.636 21.1505 20.9322 21.3899 21.2931L26.2024 28.5119L27.5149 26.5431C27.7551 26.1832 28.0804 25.8883 28.4621 25.6845C28.8437 25.4807 29.2698 25.3744 29.7024 25.375H34.9524C35.6486 25.375 36.3163 25.6516 36.8086 26.1439C37.3009 26.6361 37.5774 27.3038 37.5774 28C37.5774 28.6962 37.3009 29.3639 36.8086 29.8562C36.3163 30.3485 35.6486 30.625 34.9524 30.625H31.1024L28.3768 34.7069C28.1374 35.0679 27.8123 35.364 27.4306 35.5688C27.0489 35.7737 26.6225 35.8809 26.1893 35.8809C25.7561 35.8809 25.3297 35.7737 24.948 35.5688C24.5663 35.364 24.2413 35.0679 24.0018 34.7069L19.1893 27.4881L17.8768 29.4569C17.6375 29.8156 17.3136 30.1098 16.9336 30.3135C16.5536 30.5172 16.1292 30.6242 15.6981 30.625ZM38.9184 6.12502C34.5171 6.12502 30.6059 7.8597 27.9656 10.8413C25.3187 7.8597 21.414 6.12502 17.0106 6.12502C13.4551 6.11978 10.0227 7.42669 7.37113 9.79532C4.71954 12.164 3.03521 15.4277 2.64088 18.9613C2.60296 19.305 2.63311 19.6528 2.72961 19.9849C2.82611 20.3169 2.98708 20.6267 3.2033 20.8966C3.64 21.4416 4.27531 21.7908 4.96947 21.8674C5.66364 21.9439 6.35979 21.7416 6.90479 21.3049C7.17464 21.0887 7.39927 20.8214 7.56583 20.5184C7.7324 20.2154 7.83765 19.8825 7.87557 19.5388C8.12742 17.2926 9.1984 15.2181 10.8837 13.712C12.569 12.2059 14.7503 11.3739 17.0106 11.375C20.9109 11.375 24.1746 13.4313 25.5309 16.7431C25.7269 17.228 26.0633 17.6432 26.4969 17.9356C26.9305 18.2279 27.4415 18.3841 27.9645 18.3841C28.4874 18.3841 28.9985 18.2279 29.4321 17.9356C29.8657 17.6432 30.202 17.228 30.3981 16.7431C31.7543 13.4313 35.0181 11.375 38.9184 11.375C41.357 11.3744 43.6963 12.3416 45.4225 14.0641C47.1488 15.7867 48.1209 18.1239 48.1256 20.5625C48.1256 26.9981 42.4687 33.1997 37.7218 37.2663C34.6702 39.8527 31.4083 42.1803 27.9699 44.2247C25.5921 42.8138 20.2328 39.4122 15.6084 34.8775C15.3625 34.6356 15.0713 34.4446 14.7516 34.3152C14.4319 34.1858 14.0898 34.1207 13.7449 34.1236C13.3999 34.1264 13.059 34.1972 12.7414 34.3318C12.4238 34.4664 12.1359 34.6622 11.894 34.9081C11.6521 35.154 11.4611 35.4452 11.3317 35.7649C11.2023 36.0847 11.1372 36.4268 11.14 36.7717C11.1458 37.4683 11.428 38.134 11.9246 38.6225C18.5724 45.1435 26.3949 49.385 26.7253 49.56C27.1084 49.7653 27.5364 49.8727 27.971 49.8727C28.4057 49.8727 28.8337 49.7653 29.2168 49.56C30.1881 49.0306 53.3756 36.3869 53.3756 20.5625C53.3686 16.7322 51.8426 13.061 49.1323 10.3544C46.422 7.64777 42.7487 6.12675 38.9184 6.12502Z" fill="#70C2E5"/>
</svg>
