<svg width="14" height="14" viewBox="0 0 14 14" fill="none" xmlns="http://www.w3.org/2000/svg">
<path d="M11.841 5.71458L7.46598 10.0896C7.40501 10.1508 7.33257 10.1993 7.2528 10.2324C7.17303 10.2655 7.08751 10.2826 7.00114 10.2826C6.91477 10.2826 6.82924 10.2655 6.74948 10.2324C6.66971 10.1993 6.59726 10.1508 6.53629 10.0896L2.16129 5.71458C2.03801 5.59129 1.96875 5.42408 1.96875 5.24973C1.96875 5.07538 2.03801 4.90817 2.16129 4.78489C2.28458 4.6616 2.45179 4.59234 2.62614 4.59234C2.80049 4.59234 2.9677 4.6616 3.09098 4.78489L7.00169 8.69559L10.9124 4.78434C11.0357 4.66106 11.2029 4.5918 11.3772 4.5918C11.5516 4.5918 11.7188 4.66106 11.8421 4.78434C11.9654 4.90763 12.0346 5.07484 12.0346 5.24919C12.0346 5.42354 11.9654 5.59075 11.8421 5.71403L11.841 5.71458Z" fill="#343330"/>
</svg>
