<svg width="16" height="16" viewBox="0 0 16 16" fill="none" xmlns="http://www.w3.org/2000/svg">
<path d="M16.0007 8.50055C16.0007 8.63315 15.948 8.76033 15.8542 8.8541C15.7605 8.94787 15.6333 9.00055 15.5007 9.00055H14.5007V10.0005C14.5007 10.1332 14.448 10.2603 14.3542 10.3541C14.2605 10.4479 14.1333 10.5005 14.0007 10.5005C13.8681 10.5005 13.7409 10.4479 13.6471 10.3541C13.5534 10.2603 13.5007 10.1332 13.5007 10.0005V9.00055H12.5007C12.3681 9.00055 12.2409 8.94787 12.1471 8.8541C12.0534 8.76033 12.0007 8.63315 12.0007 8.50055C12.0007 8.36794 12.0534 8.24076 12.1471 8.14699C12.2409 8.05322 12.3681 8.00055 12.5007 8.00055H13.5007V7.00055C13.5007 6.86794 13.5534 6.74076 13.6471 6.64699C13.7409 6.55323 13.8681 6.50055 14.0007 6.50055C14.1333 6.50055 14.2605 6.55323 14.3542 6.64699C14.448 6.74076 14.5007 6.86794 14.5007 7.00055V8.00055H15.5007C15.6333 8.00055 15.7605 8.05322 15.8542 8.14699C15.948 8.24076 16.0007 8.36794 16.0007 8.50055ZM9.00067 9.85555C9.78448 9.36736 10.388 8.63718 10.7198 7.77547C11.0517 6.91376 11.0939 5.9674 10.84 5.07958C10.5861 4.19176 10.05 3.41077 9.31275 2.85478C8.57549 2.29879 7.67721 1.99805 6.7538 1.99805C5.83039 1.99805 4.9321 2.29879 4.19484 2.85478C3.45758 3.41077 2.92145 4.19176 2.66758 5.07958C2.4137 5.9674 2.45589 6.91376 2.78776 7.77547C3.11962 8.63718 3.72311 9.36736 4.50692 9.85555C3.2163 10.278 2.05505 11.0674 1.1213 12.1787C1.06017 12.2513 1.02099 12.3399 1.00835 12.434C0.995717 12.5281 1.01014 12.6239 1.04994 12.7101C1.08973 12.7963 1.15326 12.8694 1.23308 12.9209C1.3129 12.9723 1.40572 12.9999 1.50067 13.0005H12.0007C12.0959 13.0006 12.1893 12.9735 12.2696 12.9224C12.35 12.8712 12.4141 12.7982 12.4544 12.7118C12.4946 12.6254 12.5094 12.5294 12.4969 12.4349C12.4844 12.3405 12.4451 12.2516 12.3838 12.1787C11.4494 11.0674 10.2882 10.278 9.00067 9.85555Z" fill="#0E7BAA"/>
</svg>
