<svg width="32" height="32" viewBox="0 0 32 32" fill="none" xmlns="http://www.w3.org/2000/svg">
<path d="M31.9997 16.9991C31.9997 17.2644 31.8943 17.5187 31.7068 17.7062C31.5192 17.8938 31.2649 17.9991 30.9997 17.9991H28.9997V19.9991C28.9997 20.2644 28.8943 20.5187 28.7068 20.7062C28.5192 20.8938 28.2649 20.9991 27.9997 20.9991C27.7345 20.9991 27.4801 20.8938 27.2926 20.7062C27.105 20.5187 26.9997 20.2644 26.9997 19.9991V17.9991H24.9997C24.7345 17.9991 24.4801 17.8938 24.2926 17.7062C24.105 17.5187 23.9997 17.2644 23.9997 16.9991C23.9997 16.7339 24.105 16.4796 24.2926 16.292C24.4801 16.1045 24.7345 15.9991 24.9997 15.9991H26.9997V13.9991C26.9997 13.7339 27.105 13.4796 27.2926 13.292C27.4801 13.1045 27.7345 12.9991 27.9997 12.9991C28.2649 12.9991 28.5192 13.1045 28.7068 13.292C28.8943 13.4796 28.9997 13.7339 28.9997 13.9991V15.9991H30.9997C31.2649 15.9991 31.5192 16.1045 31.7068 16.292C31.8943 16.4796 31.9997 16.7339 31.9997 16.9991ZM24.7659 24.3554C24.9367 24.5586 25.0197 24.8213 24.9967 25.0858C24.9737 25.3502 24.8466 25.5947 24.6434 25.7654C24.4402 25.9361 24.1775 26.0191 23.9131 25.9962C23.6486 25.9732 23.4042 25.8461 23.2334 25.6429C20.7184 22.6479 17.2609 20.9991 13.4997 20.9991C9.73843 20.9991 6.28093 22.6479 3.76593 25.6429C3.59519 25.8459 3.35079 25.9729 3.08648 25.9957C2.82217 26.0186 2.55961 25.9355 2.35655 25.7648C2.15349 25.594 2.02658 25.3496 2.00372 25.0853C1.98087 24.821 2.06394 24.5584 2.23468 24.3554C4.10218 22.1329 6.42468 20.5541 9.00593 19.7091C7.43831 18.7328 6.23133 17.2724 5.56759 15.549C4.90386 13.8256 4.81949 11.9329 5.32724 10.1572C5.83499 8.38156 6.90724 6.81959 8.38176 5.70761C9.85629 4.59563 11.6529 3.99414 13.4997 3.99414C15.3465 3.99414 17.1431 4.59563 18.6176 5.70761C20.0921 6.81959 21.1644 8.38156 21.6721 10.1572C22.1799 11.9329 22.0955 13.8256 21.4318 15.549C20.768 17.2724 19.561 18.7328 17.9934 19.7091C20.5747 20.5541 22.8972 22.1329 24.7659 24.3554ZM13.4997 18.9991C14.7853 18.9991 16.042 18.6179 17.1109 17.9037C18.1798 17.1895 19.0129 16.1743 19.5049 14.9866C19.9969 13.7989 20.1256 12.4919 19.8748 11.2311C19.624 9.97018 19.0049 8.81199 18.0959 7.90295C17.1868 6.9939 16.0286 6.37484 14.7678 6.12404C13.5069 5.87323 12.2 6.00195 11.0122 6.49392C9.82451 6.98589 8.80935 7.81901 8.09512 8.88793C7.38089 9.95685 6.99968 11.2136 6.99968 12.4991C7.00166 14.2224 7.68712 15.8746 8.90567 17.0931C10.1242 18.3117 11.7764 18.9972 13.4997 18.9991Z" fill="white"/>
</svg>
