<svg width="32" height="32" viewBox="0 0 32 32" fill="none" xmlns="http://www.w3.org/2000/svg">
<path d="M27.4082 4.59673C26.0655 3.25421 24.2445 2.5 22.3457 2.5C20.4469 2.5 18.6259 3.25421 17.2832 4.59673L4.59696 17.283C3.2543 18.6256 2.5 20.4467 2.5 22.3455C2.5 24.2443 3.2543 26.0653 4.59696 27.408C5.93961 28.7506 7.76065 29.5049 9.65946 29.5049C11.5583 29.5049 13.3793 28.7506 14.722 27.408L27.4082 14.718C28.7481 13.3746 29.5005 11.5547 29.5005 9.65736C29.5005 7.76002 28.7481 5.94012 27.4082 4.59673ZM12.5982 25.283C12.2183 25.6942 11.7593 26.0244 11.2487 26.2538C10.7381 26.4833 10.1864 26.6073 9.6267 26.6183C9.067 26.6294 8.51084 26.5273 7.99156 26.3182C7.47228 26.1091 7.00057 25.7973 6.60473 25.4015C6.20889 25.0056 5.89707 24.5339 5.68797 24.0146C5.47886 23.4953 5.37678 22.9392 5.38784 22.3795C5.39891 21.8198 5.52289 21.2681 5.75235 20.7575C5.98181 20.2469 6.31203 19.7879 6.72321 19.408L12.0007 14.1255L17.8757 20.0005L12.5982 25.283ZM25.2857 12.5967L20.0007 17.8755L14.1257 12.0005L19.4095 6.71798C20.1984 5.98902 21.239 5.59374 22.3129 5.61497C23.3869 5.6362 24.411 6.07229 25.1706 6.83186C25.9301 7.59143 26.3662 8.61551 26.3875 9.68949C26.4087 10.7635 26.0134 11.804 25.2845 12.593L25.2857 12.5967ZM24.0645 9.43923C24.2043 9.57859 24.3153 9.74418 24.391 9.9265C24.4667 10.1088 24.5056 10.3043 24.5056 10.5017C24.5056 10.6992 24.4667 10.8946 24.391 11.077C24.3153 11.2593 24.2043 11.4249 24.0645 11.5642L21.0645 14.5642C20.9249 14.7038 20.7593 14.8144 20.577 14.89C20.3947 14.9655 20.1993 15.0043 20.002 15.0043C19.8046 15.0043 19.6092 14.9655 19.4269 14.89C19.2446 14.8144 19.079 14.7038 18.9395 14.5642C18.7999 14.4247 18.6892 14.2591 18.6137 14.0768C18.5382 13.8944 18.4994 13.6991 18.4994 13.5017C18.4994 13.3044 18.5382 13.109 18.6137 12.9267C18.6892 12.7444 18.7999 12.5788 18.9395 12.4392L21.9395 9.43923C22.0788 9.29939 22.2444 9.18844 22.4267 9.11273C22.6091 9.03702 22.8045 8.99805 23.002 8.99805C23.1994 8.99805 23.3949 9.03702 23.5772 9.11273C23.7595 9.18844 23.9251 9.29939 24.0645 9.43923Z" fill="#119AD4"/>
</svg>
