<svg width="32" height="32" viewBox="0 0 32 32" fill="none" xmlns="http://www.w3.org/2000/svg">
<path d="M23.4106 19.8827C23.2046 20.9018 22.653 21.8185 21.8489 22.4777C21.0449 23.1368 20.0378 23.4981 18.9981 23.5002C16.2143 23.4972 13.5453 22.39 11.5768 20.4215C9.60829 18.4531 8.50109 15.7841 8.49811 13.0002C8.50026 11.9605 8.86148 10.9535 9.52066 10.1494C10.1798 9.34537 11.0965 8.7937 12.1156 8.58772C12.4378 8.52396 12.772 8.5677 13.0669 8.71222C13.3618 8.85674 13.6011 9.09405 13.7481 9.38772L15.1831 12.2627C15.3008 12.4989 15.3541 12.7619 15.3377 13.0253C15.3212 13.2887 15.2355 13.543 15.0894 13.7627L14.0244 15.3602C14.5727 16.5036 15.4947 17.4256 16.6381 17.974L18.2356 16.909C18.4553 16.7628 18.7097 16.6771 18.973 16.6607C19.2364 16.6442 19.4994 16.6975 19.7356 16.8152L22.6106 18.2502C22.9043 18.3972 23.1416 18.6366 23.2861 18.9315C23.4306 19.2264 23.4744 19.5606 23.4106 19.8827ZM29.4981 16.0002C29.4986 18.3127 28.9051 20.5865 27.7744 22.6037C26.6438 24.6209 25.014 26.3138 23.0412 27.5203C21.0683 28.7267 18.8187 29.4061 16.5079 29.4935C14.1971 29.5808 11.9026 29.0731 9.84436 28.019L5.79061 29.3752C5.34931 29.5239 4.87524 29.5465 4.42184 29.4402C3.96843 29.334 3.55371 29.1032 3.22442 28.7739C2.89513 28.4446 2.66436 28.0299 2.55812 27.5765C2.45187 27.1231 2.47439 26.649 2.62311 26.2077L3.97436 22.154C3.04647 20.3364 2.54271 18.3322 2.50095 16.2919C2.45919 14.2516 2.88051 12.2284 3.73324 10.3745C4.58598 8.52047 5.84793 6.88392 7.42421 5.58787C9.0005 4.29181 10.8501 3.36998 12.834 2.89168C14.8178 2.41337 16.8843 2.39105 18.878 2.82637C20.8717 3.2617 22.7408 4.14336 24.3447 5.40505C25.9486 6.66675 27.2457 8.27564 28.1383 10.1108C29.0308 11.9459 29.4958 13.9595 29.4981 16.0002ZM26.4981 16.0002C26.4975 14.3896 26.1264 12.8008 25.4135 11.3566C24.7006 9.91239 23.665 8.65154 22.3869 7.67157C21.1088 6.69161 19.6224 6.0188 18.0426 5.7052C16.4629 5.39159 14.8322 5.4456 13.2766 5.86305C11.7211 6.28049 10.2824 7.05017 9.07196 8.11256C7.86147 9.17495 6.91161 10.5016 6.29584 11.9898C5.68007 13.478 5.41491 15.0879 5.52086 16.695C5.62681 18.3021 6.10104 19.8632 6.90686 21.2577C7.01337 21.4416 7.07959 21.646 7.10114 21.8574C7.12269 22.0688 7.09907 22.2824 7.03186 22.484L5.79061 26.2077L9.51436 24.9665C9.66754 24.9154 9.82791 24.8893 9.98936 24.889C10.2528 24.8894 10.5115 24.9593 10.7394 25.0915C12.3356 26.0151 14.147 26.5021 15.9913 26.5033C17.8355 26.5045 19.6476 26.0199 21.2451 25.0983C22.8425 24.1767 24.1691 22.8506 25.0913 21.2535C26.0134 19.6563 26.4986 17.8445 26.4981 16.0002Z" fill="#119AD4"/>
</svg>
