<svg width="40" height="40" viewBox="0 0 40 40" fill="none" xmlns="http://www.w3.org/2000/svg">
<path d="M14.0018 10.3333C14.1769 10.202 14.3761 10.1065 14.5882 10.0521C14.8002 9.99782 15.0208 9.9858 15.2375 10.0168C15.4542 10.0477 15.6626 10.121 15.851 10.2325C16.0393 10.3441 16.2038 10.4916 16.3351 10.6667C16.4665 10.8418 16.562 11.041 16.6163 11.253C16.6706 11.4651 16.6827 11.6857 16.6517 11.9024C16.6208 12.119 16.5474 12.3275 16.4359 12.5158C16.3244 12.7042 16.1769 12.8687 16.0018 13C13.3951 14.955 11.9018 16.8567 11.0468 18.5167C12.2207 18.2145 13.4597 18.2855 14.5914 18.7199C15.7231 19.1543 16.6914 19.9305 17.3616 20.9406C18.0318 21.9507 18.3707 23.1445 18.3312 24.3561C18.2917 25.5676 17.8757 26.7368 17.141 27.701C16.4064 28.6653 15.3896 29.3767 14.232 29.7364C13.0743 30.0961 11.8334 30.0863 10.6816 29.7082C9.52989 29.3301 8.52453 28.6026 7.80531 27.6268C7.08608 26.651 6.68872 25.4754 6.66846 24.2633C6.45727 22.2166 6.74787 20.1492 7.51513 18.24C8.51013 15.73 10.4551 12.9933 14.0018 10.3333ZM29.0018 10.3333C29.1769 10.202 29.3761 10.1065 29.5882 10.0521C29.8002 9.99782 30.0208 9.9858 30.2375 10.0168C30.4542 10.0477 30.6626 10.121 30.851 10.2325C31.0393 10.3441 31.2038 10.4916 31.3351 10.6667C31.4664 10.8418 31.562 11.041 31.6163 11.253C31.6706 11.4651 31.6827 11.6857 31.6517 11.9024C31.6208 12.119 31.5474 12.3275 31.4359 12.5158C31.3244 12.7042 31.1769 12.8687 31.0018 13C28.3951 14.955 26.9018 16.8567 26.0468 18.5167C27.2207 18.2145 28.4597 18.2855 29.5914 18.7199C30.7231 19.1543 31.6914 19.9305 32.3616 20.9406C33.0318 21.9507 33.3707 23.1445 33.3312 24.3561C33.2917 25.5676 32.8757 26.7368 32.141 27.701C31.4064 28.6653 30.3896 29.3767 29.232 29.7364C28.0743 30.0961 26.8334 30.0863 25.6817 29.7082C24.5299 29.3301 23.5245 28.6026 22.8053 27.6268C22.0861 26.651 21.6887 25.4754 21.6685 24.2633C21.4573 22.2166 21.7479 20.1492 22.5151 18.24C23.5118 15.73 25.4551 12.9933 29.0018 10.3333Z" fill="#CFEBF6"/>
</svg>
