<svg width="32" height="32" viewBox="0 0 32 32" fill="none" xmlns="http://www.w3.org/2000/svg">
<path d="M29.311 14.2973L23.6735 19.2173L25.3622 26.5422C25.4516 26.9252 25.4261 27.326 25.2889 27.6945C25.1517 28.063 24.909 28.3829 24.591 28.6142C24.273 28.8455 23.8938 28.9779 23.501 28.9949C23.1081 29.0119 22.719 28.9127 22.3822 28.7097L15.9935 24.8347L9.61846 28.7097C9.28168 28.9127 8.89253 29.0119 8.49968 28.9949C8.10683 28.9779 7.72771 28.8455 7.40971 28.6142C7.09171 28.3829 6.84895 28.063 6.71177 27.6945C6.5746 27.326 6.5491 26.9252 6.63846 26.5422L8.32472 19.2248L2.68597 14.2973C2.38773 14.04 2.17207 13.7005 2.06604 13.3212C1.96 12.9419 1.96831 12.5397 2.08993 12.1651C2.21155 11.7905 2.44105 11.4602 2.74966 11.2155C3.05828 10.9708 3.43226 10.8227 3.82472 10.7898L11.2572 10.146L14.1585 3.226C14.31 2.8629 14.5655 2.55273 14.8929 2.33457C15.2204 2.11641 15.605 2 15.9985 2C16.3919 2 16.7766 2.11641 17.104 2.33457C17.4314 2.55273 17.687 2.8629 17.8385 3.226L20.7485 10.146L28.1785 10.7898C28.5709 10.8227 28.9449 10.9708 29.2535 11.2155C29.5621 11.4602 29.7916 11.7905 29.9132 12.1651C30.0349 12.5397 30.0432 12.9419 29.9371 13.3212C29.8311 13.7005 29.6155 14.04 29.3172 14.2973H29.311Z" fill="#119AD4"/>
</svg>
